<svg xmlns="http://www.w3.org/2000/svg" viewBox="0 0 32 32" width="32" height="32"><style>:root{--ink:oklch(0.240 0.015 236.0)}@media (prefers-color-scheme:dark){:root{--ink:oklch(0.940 0.008 236.0)}}</style><path d="M9.17 0L8 0.19L6.67 0.91L6.11 1.33L5.33 2.11L4.53 2.67L4 3.15L2.78 4L2.67 4.46L2.51 5.33L2.67 5.55L4 6.47L4.27 6.67L5.33 7.42L5.66 8L6.09 9.33L6.2 10.67L5.92 12L5.33 13.32L5.32 13.33L4 14.25L2.67 14.65L2.65 14.67L2.67 14.73L4 15.76L4.64 16L5.33 16.08L6.17 17.33L6.41 18.67L6 20L5.37 21.33L5.33 21.42L4.66 22.67L4 23.88L3.91 24L2.83 25.33L2.67 25.52L1.78 26.67L1.33 27.95L1.31 28L1.33 28.24L1.41 29.33L2.29 30.67L2.67 30.97L4 31.54L5.33 31.67L6.67 31.59L8 31.3L9.08 30.67L9.33 30.39L9.93 29.33L10.04 28L10.21 26.67L10.67 26.03L11.67 25.33L12 25.22L13.33 24.94L14.67 24.76L15.76 25.33L16 25.45L16.96 26.67L17.33 27L18.14 28L18.67 28.57L19.61 29.33L20 29.66L21.33 30.31L22.67 30.56L24 30.54L25.33 30.16L26.41 29.33L26.67 29.01L27.32 28L27.59 26.67L27.58 25.33L27.59 24L27.91 22.67L28 22.42L28.5 21.33L28.73 20L28.51 18.67L28 17.63L27.87 17.33L27.16 16L26.67 14.83L26.58 14.67L26.51 13.33L26.67 12.6L26.81 12L27.36 10.67L28 9.94L28.37 9.33L28.6 8L28 7.22L26.67 7.33L26.05 8L25.33 9.22L25.26 9.33L24.17 10.67L24 10.78L22.94 12L22.67 12.32L21.97 13.33L21.33 14.07L20.94 14.67L20.24 16L20 17.33L20 17.33L20 17.34L20.09 18.67L20.21 20L20 20.66L19.59 21.33L18.67 21.91L17.33 22.31L16 21.55L15.93 21.33L15.63 20L15.54 18.67L15.57 17.33L15.52 16L15.18 14.67L14.67 13.73L14.46 13.33L13.76 12L13.61 10.67L14.67 9.76L16 10.38L16.59 10.67L17.33 10.97L18.67 10.92L19.2 10.67L20 10.04L20.47 9.33L20.53 8L20 6.67L20 6.66L18.67 5.39L18.44 5.33L17.33 5.01L16 4.84L14.97 4L14.67 3.74L13.91 2.67L13.33 2.05L12.63 1.33L12 0.81L10.67 0.16L9.51 0" fill="none" stroke="var(--ink)" stroke-opacity="0.9" stroke-width="1.14" stroke-linejoin="round" stroke-linecap="round"/><circle cx="10.99" cy="6.22" r="3" fill="var(--ink)" fill-opacity="0.85"/></svg>
